<?xml version="1.0" encoding="utf-8"?>
<!-- Generator: Adobe Illustrator 16.0.3, SVG Export Plug-In . SVG Version: 6.00 Build 0)  -->
<!DOCTYPE svg PUBLIC "-//W3C//DTD SVG 1.1//EN" "http://www.w3.org/Graphics/SVG/1.1/DTD/svg11.dtd">
<svg version="1.1" id="Layer_1" xmlns="http://www.w3.org/2000/svg" xmlns:xlink="http://www.w3.org/1999/xlink" x="0px" y="0px"
	 width="251.862px" height="129.534px" viewBox="169.338 350.981 251.862 129.534"
	 enable-background="new 169.338 350.981 251.862 129.534" xml:space="preserve">
<path fill="#4878FF" d="M336.988,364.415c-1.555-1.484-2.332-3.394-2.332-5.586c0-2.191,0.777-4.101,2.332-5.586
	c1.557-1.484,3.395-2.262,5.586-2.262c2.193,0,4.031,0.777,5.516,2.262c1.484,1.485,2.191,3.395,2.191,5.586
	c0,2.192-0.707,4.102-2.191,5.586c-1.484,1.485-3.252,2.263-5.516,2.263C340.382,366.677,338.544,365.9,336.988,364.415z"/>
<path fill="#27416B" d="M389.523,395.031c10.889,0,19.729,8.839,19.729,19.728s-8.84,19.728-19.729,19.728
	s-19.727-8.839-19.727-19.728S378.634,395.031,389.523,395.031 M389.523,383.152c-17.465,0-31.676,14.142-31.676,31.677
	s14.141,31.677,31.676,31.677c17.465,0,31.678-14.142,31.678-31.677S407.058,383.152,389.523,383.152z M170.969,426.991
	c2.263-2.546,6.293-2.688,8.697-0.283c1.343,1.344,2.97,2.687,4.737,3.96c1.838,1.343,3.818,2.333,6.01,3.04
	c2.192,0.707,4.455,1.061,6.859,1.061c5.091,0,9.263-1.484,12.444-4.525c3.182-2.97,4.737-6.575,4.737-10.818
	c0-1.909-0.424-3.747-1.202-5.303c-0.778-1.626-1.838-2.898-3.182-4.03c-1.343-1.061-2.97-2.121-4.737-3.111
	c-1.838-0.989-3.748-1.909-5.798-2.616c-2.051-0.777-4.172-1.626-6.293-2.545s-4.243-1.909-6.293-2.828
	c-2.05-0.92-3.959-2.121-5.798-3.536c-1.838-1.414-3.394-2.969-4.737-4.596c-1.344-1.626-2.404-3.677-3.253-6.08
	c-0.777-2.404-1.202-5.092-1.202-7.99c0-7.637,2.545-13.788,7.636-18.596c5.091-4.809,12.091-7.142,20.929-7.142
	c6.576,0,12.727,1.626,18.384,4.879c3.111,1.768,4.03,5.868,1.909,8.768c-1.768,2.404-5.162,3.252-7.707,1.697
	c-4.03-2.404-8.344-3.606-13.01-3.606c-4.879,0-8.626,1.131-11.384,3.465c-2.687,2.333-4.101,5.373-4.101,9.191
	c0,2.263,0.495,4.242,1.485,5.939c0.99,1.768,2.263,3.182,3.889,4.313c1.626,1.131,3.535,2.191,5.585,3.182
	c2.122,0.99,4.313,1.909,6.717,2.828c2.333,0.919,4.667,1.839,7.071,2.828c2.333,0.99,4.596,2.192,6.717,3.606
	c2.121,1.414,3.959,3.04,5.585,4.737c1.626,1.768,2.97,3.959,3.889,6.646c0.99,2.687,1.485,5.656,1.485,8.979
	c0,8.273-2.687,14.99-8.202,20.151c-5.444,5.162-12.515,7.707-21.283,7.707c-6.081,0-11.737-1.343-17.041-4.03
	c-3.747-1.909-7-4.313-9.828-7.354C168.777,432.789,168.918,429.254,170.969,426.991L170.969,426.991z M268.262,383.152
	c-17.465,0-31.677,14.142-31.677,31.677v59.747c0,3.253,2.687,5.939,5.939,5.939c3.252,0,5.939-2.687,5.939-5.939v-34.999
	c5.445,4.313,12.303,6.929,19.728,6.929c17.464,0,31.676-14.142,31.676-31.677S285.726,383.152,268.262,383.152L268.262,383.152z
	 M268.262,434.556c-10.889,0-19.728-8.838-19.728-19.728c0-10.889,8.838-19.728,19.728-19.728c10.889,0,19.727,8.839,19.727,19.728
	C288.06,425.647,279.15,434.556,268.262,434.556z M316.414,444.809c-3.254,0-5.939-2.688-5.939-5.939v-81.95
	c0-3.252,2.686-5.938,5.939-5.938c3.252,0,5.939,2.687,5.939,5.938v81.95C322.353,442.122,319.666,444.808,316.414,444.809
	L316.414,444.809z M342.433,444.809c-3.252,0-5.939-2.688-5.939-5.939v-49.778c0-3.252,2.688-5.939,5.939-5.939
	s5.939,2.688,5.939,5.939v49.778C348.373,442.122,345.755,444.808,342.433,444.809L342.433,444.809z"/>
</svg>
